<?xml version="1.0" encoding="UTF-8" standalone="no"?>
<!-- Created with Inkscape (http://www.inkscape.org/) -->
<svg
   xmlns:dc="http://purl.org/dc/elements/1.1/"
   xmlns:cc="http://web.resource.org/cc/"
   xmlns:rdf="http://www.w3.org/1999/02/22-rdf-syntax-ns#"
   xmlns:svg="http://www.w3.org/2000/svg"
   xmlns="http://www.w3.org/2000/svg"
   xmlns:sodipodi="http://inkscape.sourceforge.net/DTD/sodipodi-0.dtd"
   xmlns:inkscape="http://www.inkscape.org/namespaces/inkscape"
   width="250"
   height="250"
   id="svg2"
   sodipodi:version="0.32"
   inkscape:version="0.43"
   version="1.0"
   sodipodi:docbase="/home/smueller"
   sodipodi:docname="abstractfig2.svg">
  <defs
     id="defs4" />
  <sodipodi:namedview
     id="base"
     pagecolor="#ffffff"
     bordercolor="#666666"
     borderopacity="1.0"
     inkscape:pageopacity="0.0"
     inkscape:pageshadow="2"
     inkscape:zoom="1.4615396"
     inkscape:cx="120.77288"
     inkscape:cy="112.48805"
     inkscape:document-units="px"
     inkscape:current-layer="layer1"
     showgrid="true"
     inkscape:window-width="784"
     inkscape:window-height="665"
     inkscape:window-x="1579"
     inkscape:window-y="118" />
  <metadata
     id="metadata7">
    <rdf:RDF>
      <cc:Work
         rdf:about="">
        <dc:format>image/svg+xml</dc:format>
        <dc:type
           rdf:resource="http://purl.org/dc/dcmitype/StillImage" />
      </cc:Work>
    </rdf:RDF>
  </metadata>
  <g
     inkscape:label="Layer 1"
     inkscape:groupmode="layer"
     id="layer1">
    <rect
       style="opacity:1;color:#000000;fill:#ffffff;fill-opacity:1;fill-rule:evenodd;stroke:#000000;stroke-width:3;stroke-linecap:round;stroke-linejoin:round;marker:none;marker-start:none;marker-mid:none;marker-end:none;stroke-miterlimit:4;stroke-dasharray:none;stroke-dashoffset:0;stroke-opacity:1;visibility:visible;display:inline;overflow:visible"
       id="rect3059"
       width="247.99838"
       height="248.60223"
       x="1.8008083"
       y="1.1988819"
       rx="1.0547119e-15"
       ry="1.0547119e-15" />
    <g
       id="g4849"
       transform="translate(11.74678,23.26314)">
      <path
         sodipodi:type="arc"
         style="opacity:1;color:#000000;fill:#f3db00;fill-opacity:1;fill-rule:evenodd;stroke:#000000;stroke-width:0.40000001;stroke-linecap:round;stroke-linejoin:round;marker:none;marker-start:none;marker-mid:none;marker-end:none;stroke-miterlimit:4;stroke-dasharray:none;stroke-dashoffset:0;stroke-opacity:1;visibility:visible;display:inline;overflow:visible"
         id="path3934"
         sodipodi:cx="109.8157"
         sodipodi:cy="103.23695"
         sodipodi:rx="76.973625"
         sodipodi:ry="46.868385"
         d="M 186.78932 103.23695 A 76.973625 46.868385 0 1 1  32.842072,103.23695 A 76.973625 46.868385 0 1 1  186.78932 103.23695 z"
         transform="matrix(0.127811,-9.049526e-2,0.155135,0.219105,134.7237,41.4842)" />
      <path
         sodipodi:type="arc"
         style="opacity:1;color:#000000;fill:#f3db00;fill-opacity:1;fill-rule:evenodd;stroke:#000000;stroke-width:0.40000001;stroke-linecap:round;stroke-linejoin:round;marker:none;marker-start:none;marker-mid:none;marker-end:none;stroke-miterlimit:4;stroke-dasharray:none;stroke-dashoffset:0;stroke-opacity:1;visibility:visible;display:inline;overflow:visible"
         id="path3936"
         sodipodi:cx="109.8157"
         sodipodi:cy="103.23695"
         sodipodi:rx="76.973625"
         sodipodi:ry="46.868385"
         d="M 186.78932 103.23695 A 76.973625 46.868385 0 1 1  32.842072,103.23695 A 76.973625 46.868385 0 1 1  186.78932 103.23695 z"
         transform="matrix(0.127811,-9.049526e-2,0.155135,0.219105,157.1337,25.56425)" />
      <path
         sodipodi:type="arc"
         style="opacity:1;color:#000000;fill:#f3db00;fill-opacity:1;fill-rule:evenodd;stroke:#000000;stroke-width:0.40000001;stroke-linecap:round;stroke-linejoin:round;marker:none;marker-start:none;marker-mid:none;marker-end:none;stroke-miterlimit:4;stroke-dasharray:none;stroke-dashoffset:0;stroke-opacity:1;visibility:visible;display:inline;overflow:visible"
         id="path3938"
         sodipodi:cx="109.8157"
         sodipodi:cy="103.23695"
         sodipodi:rx="76.973625"
         sodipodi:ry="46.868385"
         d="M 186.78932 103.23695 A 76.973625 46.868385 0 1 1  32.842072,103.23695 A 76.973625 46.868385 0 1 1  186.78932 103.23695 z"
         transform="matrix(0.127811,-9.049526e-2,0.155135,0.219105,179.907,7.965289)" />
      <path
         transform="matrix(0.127811,-9.049526e-2,0.155135,0.219105,111.2301,58.06583)"
         d="M 186.78932 103.23695 A 76.973625 46.868385 0 1 1  32.842072,103.23695 A 76.973625 46.868385 0 1 1  186.78932 103.23695 z"
         sodipodi:ry="46.868385"
         sodipodi:rx="76.973625"
         sodipodi:cy="103.23695"
         sodipodi:cx="109.8157"
         id="path1309"
         style="opacity:1;color:#000000;fill:#f3db00;fill-opacity:1;fill-rule:evenodd;stroke:#000000;stroke-width:0.40000001;stroke-linecap:round;stroke-linejoin:round;marker:none;marker-start:none;marker-mid:none;marker-end:none;stroke-miterlimit:4;stroke-dasharray:none;stroke-dashoffset:0;stroke-opacity:1;visibility:visible;display:inline;overflow:visible"
         sodipodi:type="arc" />
    </g>
    <path
       transform="matrix(1.410476,0,0,1.396573,-116.858,-217.9161)"
       d="M 158.73672,171.31585 L 150.83258,197.9979 L 178.07195,203.69208 L 152.28294,214.14836 L 164.81452,238.99522 L 140.56028,225.35195 L 128.94753,250.64129 L 124.49201,223.17212 L 97.47957,229.86056 L 116.17786,209.25035 L 94.106645,192.30135 L 121.87855,194.06999 L 121.36864,166.2465 L 137.30136,189.06218 L 158.73672,171.31585 z "
       inkscape:randomized="0"
       inkscape:rounded="0"
       inkscape:flatsided="false"
       sodipodi:arg2="-0.53836156"
       sodipodi:arg1="-0.98716051"
       sodipodi:r2="18.686407"
       sodipodi:r1="43.45676"
       sodipodi:cy="207.57898"
       sodipodi:cx="134.78937"
       sodipodi:sides="7"
       id="path4837"
       style="opacity:1;color:#000000;fill:#9900d3;fill-opacity:1;fill-rule:evenodd;stroke:#000000;stroke-width:4.0999999;stroke-linecap:round;stroke-linejoin:round;marker:none;marker-start:none;marker-mid:none;marker-end:none;stroke-miterlimit:4;stroke-dasharray:none;stroke-dashoffset:0;stroke-opacity:1;visibility:visible;display:inline;overflow:visible"
       sodipodi:type="star" />
    <path
       sodipodi:type="spiral"
       style="fill:none;fill-opacity:0.75;fill-rule:evenodd;stroke:#000000;stroke-width:1pt;stroke-linecap:butt;stroke-linejoin:miter;stroke-opacity:1"
       id="path3946"
       sodipodi:cx="73.210472"
       sodipodi:cy="87.15802"
       sodipodi:expansion="0.62"
       sodipodi:revolution="11.61"
       sodipodi:radius="54.655487"
       sodipodi:argument="-17.877178"
       sodipodi:t0="0"
       d="M 73.210472,87.15802 C 75.256802,90.159306 71.128787,91.433728 69.029664,90.008569 C 65.860055,87.856625 66.397209,83.203547 68.829534,80.73264 C 72.357326,77.148888 78.26897,77.940001 81.472286,81.524968 C 85.547229,86.08541 84.497973,93.221819 79.943428,97.033028 C 74.49432,101.5928 66.225665,100.30694 61.870248,94.889986 C 56.844705,88.639579 58.347906,79.317558 64.553175,74.460643 C 71.543449,68.989296 81.854743,70.694374 87.181264,77.632486 C 93.079983,85.315918 91.185485,96.5638 83.558184,102.33467 C 75.21888,108.64426 63.078531,106.57056 56.884065,98.289654 C 50.178322,89.325255 52.422646,76.330039 61.327405,69.72951 C 70.890866,62.640728 84.708413,65.048388 91.69991,74.551593 C 99.15996,84.691678 96.595274,99.303038 86.515657,106.6723 C 75.818578,114.493 60.438677,111.77682 52.70333,101.14015 C 44.531623,89.903462 47.394411,73.777625 58.570915,65.686656 C 70.331672,57.172731 87.183057,60.177747 95.620213,71.878661 C 104.46829,84.149458 101.32499,101.70788 89.113614,110.48264 C 76.345522,119.65745 58.096985,116.37944 48.992455,103.67029 C 39.497796,90.41656 42.907244,71.493448 56.10254,62.066371 C 69.831202,52.258243 89.414538,55.796131 99.157492,69.466881 C 109.27314,83.660569 105.60958,103.89083 91.473263,113.94346 C 76.823736,124.36106 55.958944,120.57439 45.602391,105.9817 C 34.888063,90.884891 38.795454,69.397132 53.835967,58.742061 C 69.372055,47.735912 91.471943,51.761799 102.42047,67.242126 C 113.71381,83.209991 109.57151,105.91182 93.658881,117.14904 C 77.266296,128.72519 53.972122,124.46845 42.450704,108.13058 C 30.595881,91.319925 34.965235,67.442474 51.721679,55.641103 C 68.944106,43.511545 93.396251,47.991763 105.47355,65.160481 C 117.8741,82.788727 113.28467,107.80742 95.709644,120.15683 C 77.681237,132.82481 52.10373,128.12772 39.485856,110.15206 C 26.553843,91.728873 31.357099,65.599924 49.728004,52.717045 C 68.540849,39.524251 95.214211,44.432261 108.35879,63.193275 C 121.80925,82.390884 116.79784,109.60194 97.651617,123.00506 C 78.073919,136.71022 50.331585,131.59668 36.672966,112.06994 C 22.715968,92.116629 27.930394,63.849175 47.833168,49.93795 C 68.157803,35.731861 96.944473,41.045997 111.10552,61.320505 C 125.55806,82.012348 120.14534,111.31256 99.503228,125.72075 C 78.448132,140.4172 48.63982,134.90699 33.987064,113.90124 C 19.049155,92.486692 24.655816,62.175532 46.0214,47.280689 C 67.791727,32.103682 98.60068,37.80579 113.73522,59.527528 C 129.14904,81.650108 123.35245,112.95198 101.2781,128.3239 C 78.806678,143.97234 47.016599,138.08221 31.409513,115.65866 C 15.528595,92.841677 21.511378,60.567936 44.280826,44.727846 C 67.440179,28.616509 100.19318,34.69107 116.26419,57.803228 C 132.60395,81.301879 126.43845,114.52989 102.98667,130.8298 C 79.151699,147.39604 45.452804,141.14042 28.925945,117.352 C 12.135097,93.183594 18.480058,59.01781 42.602228,42.2659 C 52.956995,35.074917 65.711218,31.67689 78.271395,32.73735"
       transform="translate(97.94638,95.67696)" />
  </g>
</svg>
