<?xml version="1.0" encoding="UTF-8" standalone="no"?>
<!-- Created with Inkscape (http://www.inkscape.org/) -->

<svg
   xmlns:dc="http://purl.org/dc/elements/1.1/"
   xmlns:cc="http://creativecommons.org/ns#"
   xmlns:rdf="http://www.w3.org/1999/02/22-rdf-syntax-ns#"
   xmlns:svg="http://www.w3.org/2000/svg"
   xmlns="http://www.w3.org/2000/svg"
   xmlns:sodipodi="http://sodipodi.sourceforge.net/DTD/sodipodi-0.dtd"
   xmlns:inkscape="http://www.inkscape.org/namespaces/inkscape"
   width="200"
   height="90"
   id="svg2885"
   version="1.1"
   inkscape:version="0.47 r22583"
   sodipodi:docname="disk1.svg">
  <defs
     id="defs2887">
    <inkscape:perspective
       sodipodi:type="inkscape:persp3d"
       inkscape:vp_x="0 : 526.18109 : 1"
       inkscape:vp_y="0 : 1000 : 0"
       inkscape:vp_z="744.09448 : 526.18109 : 1"
       inkscape:persp3d-origin="372.04724 : 350.78739 : 1"
       id="perspective2893" />
    <inkscape:perspective
       id="perspective2853"
       inkscape:persp3d-origin="0.5 : 0.33333333 : 1"
       inkscape:vp_z="1 : 0.5 : 1"
       inkscape:vp_y="0 : 1000 : 0"
       inkscape:vp_x="0 : 0.5 : 1"
       sodipodi:type="inkscape:persp3d" />
    <filter
       color-interpolation-filters="sRGB"
       inkscape:collect="always"
       id="filter3683"
       x="-0.087507278"
       width="1.1750145"
       y="-0.25972971"
       height="1.5194594">
      <feGaussianBlur
         inkscape:collect="always"
         stdDeviation="5.3873623"
         id="feGaussianBlur3685" />
    </filter>
    <inkscape:perspective
       id="perspective2945"
       inkscape:persp3d-origin="0.5 : 0.33333333 : 1"
       inkscape:vp_z="1 : 0.5 : 1"
       inkscape:vp_y="0 : 1000 : 0"
       inkscape:vp_x="0 : 0.5 : 1"
       sodipodi:type="inkscape:persp3d" />
    <filter
       color-interpolation-filters="sRGB"
       inkscape:collect="always"
       id="filter3683-3"
       x="-0.087507278"
       width="1.1750145"
       y="-0.25972971"
       height="1.5194594">
      <feGaussianBlur
         inkscape:collect="always"
         stdDeviation="5.3873623"
         id="feGaussianBlur3685-1" />
    </filter>
  </defs>
  <sodipodi:namedview
     id="base"
     pagecolor="#ffffff"
     bordercolor="#666666"
     borderopacity="1.0"
     inkscape:pageopacity="0.0"
     inkscape:pageshadow="2"
     inkscape:zoom="2.9674009"
     inkscape:cx="56.615202"
     inkscape:cy="40.673532"
     inkscape:document-units="px"
     inkscape:current-layer="layer1"
     showgrid="false"
     inkscape:window-width="995"
     inkscape:window-height="713"
     inkscape:window-x="564"
     inkscape:window-y="150"
     inkscape:window-maximized="0" />
  <metadata
     id="metadata2890">
    <rdf:RDF>
      <cc:Work
         rdf:about="">
        <dc:format>image/svg+xml</dc:format>
        <dc:type
           rdf:resource="http://purl.org/dc/dcmitype/StillImage" />
        <dc:title></dc:title>
      </cc:Work>
    </rdf:RDF>
  </metadata>
  <g
     inkscape:label="Layer 1"
     inkscape:groupmode="layer"
     id="layer1"
     transform="translate(-37.736575,-260.17857)">
    <g
       transform="matrix(0.86143357,0,0,0.86143357,-79.591614,156.67069)"
       id="g3713">
      <path
         style="opacity:0.5;fill:#000000;fill-opacity:1;stroke:#000000;stroke-width:3;stroke-miterlimit:4;stroke-opacity:1;stroke-dasharray:none;stroke-dashoffset:0;filter:url(#filter3683-3)"
         d="m 253.31547,147.50558 c -40.79438,0 -73.875,7.98314 -73.875,17.8125 0,0.28621 0.0383,0.56085 0.0937,0.84375 l -0.0312,0 0,11.90625 c -0.1527,0.46729 0,0.92951 0,1.40625 0,9.82936 32.83063,17.8125 73.625,17.8125 40.79438,0 73.875,-7.98314 73.875,-17.8125 0,-0.43382 0.12666,-0.8552 0,-1.28125 l 0,-11.65625 c 0.11476,-0.40576 0.1875,-0.80597 0.1875,-1.21875 0,-9.82936 -33.08062,-17.8125 -73.875,-17.8125 z"
         id="path3715"
         transform="matrix(0.8772373,0,0,0.82928343,30.128095,29.430891)" />
      <g
         transform="translate(15.077473,28.216413)"
         id="g3717">
        <path
           style="fill:#aa0000;fill-opacity:1;stroke:#000000;stroke-width:3;stroke-miterlimit:4;stroke-opacity:1;stroke-dasharray:none;stroke-dashoffset:0"
           d="m 161.29014,132.84032 0,11.90625 c -0.1527,0.46729 0,0.92951 0,1.40625 0,9.82936 32.83063,17.8125 73.625,17.8125 40.79438,0 73.875,-7.98314 73.875,-17.8125 0,-0.43382 0.12666,-0.8552 0,-1.28125 l 0,-12.03125 -147.5,0 z"
           id="path3719"
           sodipodi:nodetypes="ccsssccc" />
        <path
           transform="matrix(0.4835916,0,0,0.18876272,114.91329,55.749561)"
           d="m 401.31343,403.79074 c 0,52.07256 -68.38492,94.28571 -152.742,94.28571 -84.35708,0 -152.742008,-42.21315 -152.742008,-94.28571 0,-52.07256 68.384928,-94.28571 152.742008,-94.28571 84.35708,0 152.742,42.21315 152.742,94.28571 z"
           sodipodi:ry="94.285713"
           sodipodi:rx="152.742"
           sodipodi:cy="403.79074"
           sodipodi:cx="248.57143"
           id="path3721"
           style="fill:#aa0000;fill-opacity:1;stroke:#000000;stroke-width:8.57247925;stroke-miterlimit:4;stroke-opacity:1;stroke-dasharray:none"
           sodipodi:type="arc" />
      </g>
    </g>
  </g>
</svg>
