<?xml version="1.0" encoding="UTF-8" standalone="no"?>
<!-- Created with Inkscape (http://www.inkscape.org/) -->
<svg
   xmlns:i="http://ns.adobe.com/AdobeIllustrator/10.0/"
   xmlns:dc="http://purl.org/dc/elements/1.1/"
   xmlns:cc="http://web.resource.org/cc/"
   xmlns:rdf="http://www.w3.org/1999/02/22-rdf-syntax-ns#"
   xmlns:svg="http://www.w3.org/2000/svg"
   xmlns="http://www.w3.org/2000/svg"
   xmlns:sodipodi="http://sodipodi.sourceforge.net/DTD/sodipodi-0.dtd"
   xmlns:inkscape="http://www.inkscape.org/namespaces/inkscape"
   width="30.597675"
   height="25.441904"
   id="svg2295"
   sodipodi:version="0.32"
   inkscape:version="0.45"
   version="1.0"
   sodipodi:docbase="/home/smueller"
   sodipodi:docname="hand.svg"
   inkscape:output_extension="org.inkscape.output.svg.inkscape"
   sodipodi:modified="true">
  <defs
     id="defs2297" />
  <sodipodi:namedview
     id="base"
     pagecolor="#ffffff"
     bordercolor="#666666"
     borderopacity="1.0"
     gridtolerance="10000"
     guidetolerance="10"
     objecttolerance="10"
     inkscape:pageopacity="0.0"
     inkscape:pageshadow="2"
     inkscape:zoom="13.262273"
     inkscape:cx="12.916512"
     inkscape:cy="15.197545"
     inkscape:document-units="px"
     inkscape:current-layer="layer1"
     inkscape:window-width="910"
     inkscape:window-height="626"
     inkscape:window-x="0"
     inkscape:window-y="25" />
  <metadata
     id="metadata2300">
    <rdf:RDF>
      <cc:Work
         rdf:about="">
        <dc:format>image/svg+xml</dc:format>
        <dc:type
           rdf:resource="http://purl.org/dc/dcmitype/StillImage" />
      </cc:Work>
    </rdf:RDF>
  </metadata>
  <g
     inkscape:label="Layer 1"
     inkscape:groupmode="layer"
     id="layer1"
     transform="translate(-104.71452,-96.794885)">
    <g
       transform="matrix(-8.8896267e-3,-0.2674695,0.2674695,-8.8896267e-3,105.07708,122.9414)"
       id="g2291">
      <path
         sodipodi:nodetypes="ccccccccccccccccccccccs"
         style="fill-rule:evenodd;stroke:#000000;stroke-width:0.036;stroke-miterlimit:10"
         id="path9"
         stroke-miterlimit="10"
         i:knockout="Off"
         d="M 81.477017,98.142143 C 83.277017,91.878143 87.328024,80.28413 87.256024,75.85613 C 87.112024,71.46413 83.764024,68.83613 84.160024,65.45213 C 84.412024,61.92413 88.552024,58.54013 89.236024,55.30013 C 89.812024,51.91613 86.896024,49.00013 88.120024,45.72413 C 89.452024,42.30413 95.824024,38.59613 96.544024,35.57213 C 97.012024,32.44013 93.988024,28.66013 91.216024,27.68813 C 88.300024,26.64413 83.656024,27.58013 79.660024,29.66813 C 75.664024,31.68413 71.488024,35.06813 67.276024,39.82013 C 68.860024,29.38013 68.860024,21.64013 67.564024,16.16813 C 66.196024,10.69613 61.804024,8.28413 59.104022,7.13213 C 56.332022,5.94413 53.704022,6.41213 51.220022,8.82413 C 51.508022,5.08013 50.716022,2.59613 48.412022,1.22813 C 46.072022,-0.21186986 40.096022,-0.21186986 37.684022,0.65213004 C 35.236022,1.48013 34.012022,3.31613 34.012022,6.30413 C 29.332022,5.40413 26.092022,5.40413 23.608022,6.30413 C 21.268022,7.20413 19.828022,8.93213 19.684022,11.63213 C 15.256022,10.48013 11.908022,10.91213 9.2440225,12.78413 C 6.6160225,14.69213 5.1040225,15.01513 3.8800225,22.90013 C 2.5480225,30.74813 1.7560225,48.10013 1.3600225,59.26013 C 0.85602246,70.27613 -1.4479775,80.35613 1.6480225,88.81613 C 4.8520225,97.276133 10.864023,103.08538 20.224022,108.55738 C 20.224022,115.03738 44.46757,107.17584 50.98357,114.73584"
         clip-rule="evenodd" />
      <path
         style="fill:#e9bdb0;fill-rule:evenodd;stroke:#000000;stroke-width:0.036;stroke-miterlimit:10"
         id="path11"
         stroke-miterlimit="10"
         i:knockout="Off"
         d="M 41.594775,106.56413 C 34.718775,108.00413 28.526775,106.92413 23.018775,103.46813 C 17.294775,100.01213 10.922775,94.792133 8.3667753,85.720133 C 5.8467753,76.288133 8.2947753,58.576133 8.3667753,48.280133 C 8.3297753,37.984133 7.3587753,29.812133 8.6547753,24.592133 C 9.9867753,19.336133 12.470775,16.852133 16.250775,16.996133 C 16.790775,23.728133 17.402775,29.416133 18.230775,34.456133 C 18.986775,39.496133 19.922775,43.492133 21.038775,46.840133 C 20.174775,34.708133 19.994775,26.032133 20.498775,20.380133 C 20.894775,14.764133 21.686775,14.908133 23.846775,13.324133 C 26.042775,11.668133 29.138775,10.732133 33.422775,10.516133 C 33.422775,17.176133 33.710775,23.188133 34.286775,29.092133 C 34.790775,34.924133 35.726775,40.144133 36.806775,45.148133 C 36.734775,31.720133 36.878775,22.144133 37.094775,15.592133 C 37.274775,9.076133 36.626775,8.536133 38.210775,6.592133 C 39.794775,4.576133 44.510775,3.532133 46.382775,4.036133 C 48.074775,4.360133 48.038775,2.776133 48.650775,9.400133 C 49.118775,16.168133 49.442775,27.436133 49.478775,44.032133 C 50.054775,41.764133 50.846775,38.056133 51.458775,32.764133 C 52.034775,27.400133 52.826775,20.596133 53.438775,12.208133 C 57.074775,11.416133 59.846775,12.028133 61.610775,13.900133 C 63.338775,15.736133 63.662775,19.300133 64.130775,23.476133 C 64.634775,27.616133 63.806775,34.348133 64.418775,38.668133 C 64.850775,42.952133 67.442775,45.328133 66.938775,49.108133 C 66.398775,52.888133 64.526775,56.704133 61.322775,60.952133 C 62.510775,62.320133 63.914775,62.788133 65.246775,62.356133 C 66.578775,61.852133 68.450775,61.132133 69.494775,58.108133 C 70.322775,54.976133 68.666775,48.064133 70.898775,44.032133 C 73.130775,39.856133 79.574775,35.680133 82.994775,33.880133 C 86.306775,32.116133 89.906775,32.584133 90.878775,33.340133 C 91.706775,33.916133 89.618775,35.968133 88.358775,37.552133 C 87.026775,39.064133 83.858775,39.496133 83.282775,42.340133 C 82.634775,45.076133 85.046775,50.692133 84.686775,54.184133 C 84.182775,57.568133 80.654775,57.784133 80.474775,62.608133 C 80.150775,67.432133 83.858775,76.792133 82.994775,82.624133 C 82.058775,88.384133 80.078775,93.172133 75.110775,96.700133 C 69.926775,100.08413 58.622775,104.04413 52.862775,102.89213 C 47.030775,101.45213 41.702775,95.188133 40.766775,89.104133 C 39.938775,83.020133 47.570775,69.772133 47.534775,66.856133 C 47.282775,63.904133 41.954775,67.864133 39.902775,71.644133 C 37.814775,75.424133 34.790775,83.416133 35.114775,89.392133 C 35.366775,95.260133 37.526775,100.80413 41.594775,106.56413 z "
         clip-rule="evenodd" />
    </g>
  </g>
</svg>
